<svg xmlns="http://www.w3.org/2000/svg" width="308.603" height="158.109" viewBox="0 0 308.603 158.109">
    <g id="Group_102" data-name="Group 102" transform="translate(-160.145 -164.378)">
        <path id="Path_408" data-name="Path 408" d="M269.921,289.252a15.077,15.077,0,0,1,1.195-6.111A13.56,13.56,0,0,1,274.4,278.5a14.586,14.586,0,0,1,4.956-2.946,19.14,19.14,0,0,1,12.422,0,14.807,14.807,0,0,1,4.977,2.946,13.44,13.44,0,0,1,3.3,4.637,15.077,15.077,0,0,1,1.195,6.111,15.5,15.5,0,0,1-1.195,6.171,13.93,13.93,0,0,1-3.3,4.758,14.834,14.834,0,0,1-4.977,3.046,18.487,18.487,0,0,1-12.422,0,14.614,14.614,0,0,1-4.956-3.046,14.059,14.059,0,0,1-3.284-4.758,15.5,15.5,0,0,1-1.195-6.171m10.073,0a7.427,7.427,0,0,0,.419,2.549,6.117,6.117,0,0,0,1.154,1.99,5.043,5.043,0,0,0,1.772,1.294,5.443,5.443,0,0,0,2.23.458,5.257,5.257,0,0,0,3.981-1.752,5.933,5.933,0,0,0,1.175-1.99,7.44,7.44,0,0,0,.417-2.549,7.154,7.154,0,0,0-.417-2.488,5.328,5.328,0,0,0-1.175-1.911,5.474,5.474,0,0,0-3.981-1.653,5.657,5.657,0,0,0-2.23.439,5.181,5.181,0,0,0-1.772,1.214,5.48,5.48,0,0,0-1.154,1.911,7.141,7.141,0,0,0-.419,2.488" transform="translate(-46.222 -46.376)" fill="#0045ab" />
        <path id="Path_409" data-name="Path 409" d="M337.8,275.9h12.143a20.551,20.551,0,0,1,4.12.419,10.423,10.423,0,0,1,3.663,1.473,7.982,7.982,0,0,1,2.608,2.827,8.966,8.966,0,0,1,1,4.439,7.981,7.981,0,0,1-4.923,7.605l7.153,11.426H352.669l-5.4-10.073h-.278v10.073h-9.2Zm9.117,11.9h1.857a7.446,7.446,0,0,0,1.047-.08,3.212,3.212,0,0,0,1.066-.338,2.389,2.389,0,0,0,.83-.717,2.007,2.007,0,0,0,.336-1.214,2.228,2.228,0,0,0-.277-1.194,1.776,1.776,0,0,0-.712-.657,2.83,2.83,0,0,0-.948-.279,8.337,8.337,0,0,0-.948-.059h-2.252Z" transform="translate(-74.8 -46.955)" fill="#0045ab" />
        <path id="Path_410" data-name="Path 410" d="M403.207,295.007v9.077h-9.435V275.9h12.1a19.5,19.5,0,0,1,4.22.459,10.762,10.762,0,0,1,3.7,1.552,8.18,8.18,0,0,1,2.628,2.906,10.808,10.808,0,0,1,.02,9.018,8.552,8.552,0,0,1-2.588,2.986,10.69,10.69,0,0,1-3.7,1.672,17.713,17.713,0,0,1-4.28.518Zm0-11.745V287.8H405.2a3.752,3.752,0,0,0,1.97-.538,1.942,1.942,0,0,0,.9-1.811,2.193,2.193,0,0,0-.239-1.1,1.737,1.737,0,0,0-.657-.657,3.038,3.038,0,0,0-.935-.338,5.515,5.515,0,0,0-1.035-.1Z" transform="translate(-98.37 -46.955)" fill="#0045ab" />
        <path id="Path_411" data-name="Path 411" d="M445.486,289.252a15.087,15.087,0,0,1,1.194-6.111,13.569,13.569,0,0,1,3.284-4.637,14.594,14.594,0,0,1,4.957-2.946,19.14,19.14,0,0,1,12.422,0,14.8,14.8,0,0,1,4.976,2.946,13.434,13.434,0,0,1,3.3,4.637,15.086,15.086,0,0,1,1.195,6.111,15.506,15.506,0,0,1-1.195,6.171,13.923,13.923,0,0,1-3.3,4.758,14.832,14.832,0,0,1-4.976,3.046,18.487,18.487,0,0,1-12.422,0,14.622,14.622,0,0,1-4.957-3.046,14.068,14.068,0,0,1-3.284-4.758,15.507,15.507,0,0,1-1.194-6.171m10.073,0a7.427,7.427,0,0,0,.419,2.549,6.117,6.117,0,0,0,1.154,1.99,5.043,5.043,0,0,0,1.772,1.294,5.443,5.443,0,0,0,2.23.458,5.258,5.258,0,0,0,3.981-1.752,5.952,5.952,0,0,0,1.175-1.99,7.455,7.455,0,0,0,.417-2.549,7.168,7.168,0,0,0-.417-2.488,5.344,5.344,0,0,0-1.175-1.911,5.456,5.456,0,0,0-1.772-1.214,5.511,5.511,0,0,0-2.209-.439,5.657,5.657,0,0,0-2.23.439,5.181,5.181,0,0,0-1.772,1.214,5.479,5.479,0,0,0-1.154,1.911,7.141,7.141,0,0,0-.419,2.488" transform="translate(-120.144 -46.376)" fill="#0045ab" />
        <path id="Path_412" data-name="Path 412" d="M522.8,295.007v9.077H513.36V275.9h12.1a19.494,19.494,0,0,1,4.219.459,10.76,10.76,0,0,1,3.7,1.552,8.191,8.191,0,0,1,2.628,2.906,10.808,10.808,0,0,1,.02,9.018,8.553,8.553,0,0,1-2.588,2.986,10.69,10.69,0,0,1-3.7,1.672,17.714,17.714,0,0,1-4.28.518Zm0-11.745V287.8h1.991a3.757,3.757,0,0,0,1.971-.538,1.943,1.943,0,0,0,.9-1.811,2.2,2.2,0,0,0-.239-1.1,1.743,1.743,0,0,0-.657-.657,3.044,3.044,0,0,0-.936-.338,5.505,5.505,0,0,0-1.035-.1Z" transform="translate(-148.723 -46.955)" fill="#0045ab" />
        <path id="Path_413" data-name="Path 413" d="M568.617,275.9H578.69l10.988,28.188H579.366l-1.472-4.141h-8.959l-1.393,4.141H557.509Zm4.9,9.833-2.309,6.967h4.578Z" transform="translate(-167.312 -46.956)" fill="#0045ab" />
        <rect id="Rectangle_70" data-name="Rectangle 70" width="9.555" height="28.188" transform="translate(428.338 228.941)" fill="#0045ab" />
        <path id="Path_414" data-name="Path 414" d="M663.172,304.3a19.025,19.025,0,0,1-3.364-.3,18.22,18.22,0,0,1-3.185-.872,19.8,19.8,0,0,1-2.887-1.346,14.5,14.5,0,0,1-2.429-1.724l5.773-6.272a9.237,9.237,0,0,0,2.648,1.911,7.452,7.452,0,0,0,3.4.836,3.677,3.677,0,0,0,1.454-.279,1.031,1.031,0,0,0,.657-1.037,1.068,1.068,0,0,0-.219-.679,2.492,2.492,0,0,0-.776-.578,12.717,12.717,0,0,0-1.532-.658q-.976-.359-2.448-.838a20.814,20.814,0,0,1-2.748-1.137,9.725,9.725,0,0,1-2.329-1.616,7.1,7.1,0,0,1-1.612-2.293,7.831,7.831,0,0,1-.6-3.211,8.7,8.7,0,0,1,1.075-4.467,9.4,9.4,0,0,1,2.767-3.011,11.335,11.335,0,0,1,3.8-1.7,17.475,17.475,0,0,1,4.181-.519,16.192,16.192,0,0,1,5.674,1.075,15.17,15.17,0,0,1,5.076,3.105l-5.892,6.012a6.163,6.163,0,0,0-2.349-1.812,6.288,6.288,0,0,0-2.508-.617,3.982,3.982,0,0,0-1.672.3,1.044,1.044,0,0,0,.021,1.931,18.161,18.161,0,0,0,2.129.8q1.513.478,3.185,1.114a13.546,13.546,0,0,1,3.085,1.653,8.684,8.684,0,0,1,2.329,2.488,6.815,6.815,0,0,1,.916,3.662,9.249,9.249,0,0,1-1.015,4.439,9.59,9.59,0,0,1-2.667,3.145,11.557,11.557,0,0,1-3.723,1.871,14.711,14.711,0,0,1-4.22.617" transform="translate(-206.806 -46.376)" fill="#0045ab" />
        <path id="Path_415" data-name="Path 415" d="M322.981,385.823a24.307,24.307,0,0,0,8.845,1.307,30.638,30.638,0,0,0-2.949-8.584l-5.9,7.277m7.368-.824c.234.613-.038.944-.658.866-1.22-.152-2.444-.316-3.646-.576-.754-.163-.816-.5-.338-1.119.306-.394.627-.777.8-.987.6-.676,1.028-1.2,1.508-1.677.409-.4.8-.472,1.05.216.406,1.1.868,2.18,1.287,3.276" transform="translate(-68.563 -90.176)" fill="#cb0f22" />
        <path id="Path_416" data-name="Path 416" d="M315.45,408.773l7.772-5.225a24.307,24.307,0,0,0-8.07-3.847,30.587,30.587,0,0,0,.3,9.072m1.37-7.236c1.122.5,2.244,1.021,3.316,1.621.673.378.632.72-.005,1.169-.408.287-.827.559-1.052.709-.774.47-1.336.85-1.933,1.16-.509.265-.9.218-.94-.514-.065-1.172-.19-2.34-.269-3.51-.045-.655.313-.892.883-.636" transform="translate(-65.169 -99.084)" fill="#cb0f22" />
        <path id="Path_417" data-name="Path 417" d="M292.411,417.236a24.308,24.308,0,0,0,8.071,3.846,30.587,30.587,0,0,0-.3-9.072l-7.772,5.226m6.4,2.011c-1.122-.5-2.244-1.021-3.316-1.622-.673-.376-.632-.72.005-1.169.409-.287.828-.559,1.052-.709.774-.469,1.336-.85,1.934-1.161.509-.264.9-.218.94.515.065,1.171.19,2.34.269,3.51.045.655-.313.891-.883.636" transform="translate(-55.691 -104.266)" fill="#cb0f22" />
        <path id="Path_418" data-name="Path 418" d="M160.48,291.507a20.251,20.251,0,0,0,35.274.078,44.086,44.086,0,0,1,.8-18.463,20.253,20.253,0,0,0-35.158-2.95,79.5,79.5,0,0,0-1.251,14.074c0,2.449.118,4.87.335,7.262m17.66-23.268A13.337,13.337,0,1,1,164.8,281.576a13.352,13.352,0,0,1,13.337-13.338" transform="translate(0 -40.812)" fill="orange" />
        <path id="Path_419" data-name="Path 419" d="M253.065,202.509a44.225,44.225,0,0,1,24.928.965,85.331,85.331,0,0,0-33.781-34.828A78.681,78.681,0,0,0,218.8,180.3a64.419,64.419,0,0,1,34.263,22.212" transform="translate(-24.698 -1.797)" fill="#0045ab" />
        <path id="Path_420" data-name="Path 420" d="M245.388,372.794a64.2,64.2,0,0,1-36.076,19.138,78.943,78.943,0,0,0,24.326,13.835,85.282,85.282,0,0,0,36.651-31.753,44.128,44.128,0,0,1-24.9-1.22" transform="translate(-20.702 -87.754)" fill="#0045ab" />
        <path id="Path_421" data-name="Path 421" d="M211.356,348.506a40.18,40.18,0,0,1-35.68,9.094,79.364,79.364,0,0,0,16.96,21.924,61.626,61.626,0,0,0,36.016-17.935,44.191,44.191,0,0,1-17.3-13.082M196.92,370.26a3.48,3.48,0,1,1,0-4.921,3.48,3.48,0,0,1,0,4.921m15.194-5.353a3.479,3.479,0,1,1,0-4.92,3.479,3.479,0,0,1,0,4.92" transform="translate(-6.539 -77.528)" fill="#0045ab" />
        <path id="Path_422" data-name="Path 422" d="M181.661,212.516a40.14,40.14,0,0,1,34.75,12.177,44.054,44.054,0,0,1,18.38-11.525,61.824,61.824,0,0,0-34.324-21.011,79.491,79.491,0,0,0-18.806,20.359m33.965-4.458a3.479,3.479,0,1,1-3.479,3.479,3.48,3.48,0,0,1,3.479-3.479M201.1,201.1a3.479,3.479,0,1,1-3.479,3.479A3.479,3.479,0,0,1,201.1,201.1" transform="translate(-9.059 -11.696)" fill="#0045ab" />
        <path id="Path_423" data-name="Path 423" d="M178.856,328.944a22.742,22.742,0,0,1-17.009-7.64,78.479,78.479,0,0,0,6.517,21.156,37.689,37.689,0,0,0,35.644-8.12,43.854,43.854,0,0,1-6.808-14.677,22.775,22.775,0,0,1-18.343,9.281" transform="translate(-0.717 -65.383)" fill="orange" />
        <path id="Path_424" data-name="Path 424" d="M326.67,187.793a24.3,24.3,0,0,0-5.308,7.193,30.567,30.567,0,0,0,8.963,1.428l-3.655-8.622m.764,7.294c-1.163-.159-2.333-.258-3.5-.4-.651-.081-.816-.476-.456-.988.707-1.007,1.428-2.01,2.221-2.949.5-.589.827-.485,1.147.227.2.456.391.919.5,1.168.314.849.581,1.472.772,2.118.163.55.044.925-.684.825" transform="translate(-67.881 -9.859)" fill="#cb0f22" />
        <path id="Path_425" data-name="Path 425" d="M179.858,246.025a22.8,22.8,0,0,1,19.458,10.934,44,44,0,0,1,8.055-14.025,37.7,37.7,0,0,0-34.789-11.208,78.566,78.566,0,0,0-8.356,20.525,22.709,22.709,0,0,1,15.632-6.226" transform="translate(-1.718 -28.058)" fill="orange" />
        <path id="Path_426" data-name="Path 426" d="M312.966,176.48a30.593,30.593,0,0,0-8.988,1.266l6.025,7.17a24.3,24.3,0,0,0,2.962-8.435m-4.067,5.445c-.329-.375-.644-.763-.818-.97-.549-.719-.988-1.237-1.36-1.8-.317-.478-.313-.871.412-.989,1.157-.19,2.306-.438,3.461-.642.646-.115.919.215.726.811-.381,1.169-.775,2.34-1.258,3.47-.3.709-.648.705-1.163.119" transform="translate(-60.561 -5.086)" fill="#cb0f22" />
        <path id="Path_427" data-name="Path 427" d="M340.611,213.295a30.566,30.566,0,0,0-8.963-1.428l3.654,8.622a24.3,24.3,0,0,0,5.308-7.194m-5.983,2.844c-.314-.849-.581-1.472-.772-2.118-.163-.55-.044-.925.684-.825,1.163.158,2.333.257,3.5.4.651.081.816.476.456.988-.707,1.006-1.428,2.01-2.221,2.948-.5.589-.827.484-1.147-.227-.2-.456-.391-.919-.5-1.168" transform="translate(-72.212 -19.995)" fill="#cb0f22" />
        <path id="Path_428" data-name="Path 428" d="M183.619,299.156c-4.94-.014-9.909-4.25-10.618-9.048a7.246,7.246,0,0,1,.841-4.5,15.585,15.585,0,0,1,5.33-5.847,7.457,7.457,0,0,1,8.486-.186,13.222,13.222,0,0,1,5.953,6.659,7.8,7.8,0,0,1,.186,4.969,10.79,10.79,0,0,1-10.179,7.955m-8.524-9.608a9.5,9.5,0,0,0,1.535,4.825,1.469,1.469,0,0,0,2.686-.1c1.263-2.014.846-6.522-.762-8.241-.933-1-2.034-.912-2.582.346a22.037,22.037,0,0,0-.877,3.171m9.4-9.154a9.842,9.842,0,0,0-4.833,1.553c-1.19.883-1.12,2,.133,2.74,2.054,1.207,6.362.79,8.151-.789,1-.882.973-1.95-.221-2.516a21.815,21.815,0,0,0-3.231-.988m-.046,16.995a25.069,25.069,0,0,0,3.471-1.3c1.044-.56.927-1.517-.095-2.11a6.679,6.679,0,0,0-6.331.593c-.809.7-.774,1.564.2,2.014a19.6,19.6,0,0,0,2.757.8m7.274-7.79a24.537,24.537,0,0,0-1.343-3.467c-.5-.9-1.384-.773-1.93.093a6.439,6.439,0,0,0,.578,6.232c.665.711,1.451.676,1.878-.209a19.164,19.164,0,0,0,.817-2.65m-6.355-.38a1.694,1.694,0,0,0-1.758-1.678,1.673,1.673,0,0,0-1.652,1.675,1.714,1.714,0,0,0,1.7,1.745,1.736,1.736,0,0,0,1.711-1.743" transform="translate(-5.382 -47.984)" fill="orange" />
        <path id="Path_429" data-name="Path 429" d="M632.943,259.63a4.777,4.777,0,1,1-4.777-4.778,4.777,4.777,0,0,1,4.777,4.778" transform="translate(-195.05 -38.094)" fill="#0045ab" />
        <ellipse id="Ellipse_45" data-name="Ellipse 45" cx="2.51" cy="2.871" rx="2.51" ry="2.871" transform="translate(338.478 240.125)" fill="#0045ab" />
        <g id="Group_100" data-name="Group 100" transform="translate(216.435 270.59)">
            <path id="Path_430" data-name="Path 430" d="M294.129,362.468A87.866,87.866,0,0,1,257.373,396.4a79.042,79.042,0,0,0,22.765,3.332,79.855,79.855,0,0,0,9.687-.592,107.92,107.92,0,0,0,32.736-51.3h-7.722A44.166,44.166,0,0,1,294.129,362.468Zm-6.964,31.687a3.823,3.823,0,0,1-.181.77.962.962,0,0,1-1.25.676,27.374,27.374,0,0,1-9.507-4.5c-.655-.494-.672-.912.022-1.4,1.658-1.167,3.358-2.275,5.041-3.406l4.218-2.736c.76-.5,1.219-.4,1.313.321C287.266,387.294,287.732,390.71,287.165,394.156ZM300.4,382.223c-1.658,1.167-3.358,2.275-5.041,3.406l-4.218,2.735c-.76.5-1.219.4-1.313-.321-.445-3.412-.912-6.829-.344-10.274a3.833,3.833,0,0,1,.181-.77.962.962,0,0,1,1.25-.676,27.363,27.363,0,0,1,9.507,4.5C301.078,381.317,301.1,381.734,300.4,382.223Zm4.256-6.551a27.367,27.367,0,0,1-10.409-1.511c-.771-.28-.91-.675-.39-1.345,1.243-1.6,2.543-3.16,3.819-4.735l3.229-3.853c.58-.7,1.047-.74,1.349-.078,1.428,3.132,2.876,6.26,3.345,9.721a3.853,3.853,0,0,1,.053.789A.962.962,0,0,1,304.657,375.671Z" transform="translate(-257.373 -347.836)" fill="#cb0f22" />
            <path id="Path_431" data-name="Path 431" d="M321.232,398.457a78.767,78.767,0,0,0,37.626-18.095,128.2,128.2,0,0,0,12.614-32.526H352.082A110.381,110.381,0,0,1,321.232,398.457Z" transform="translate(-284.261 -347.836)" fill="#cb0f22" />
            <path id="Path_432" data-name="Path 432" d="M396.026,374.912a79.083,79.083,0,0,0,16.747-27.076h-7.2A130.466,130.466,0,0,1,396.026,374.912Z" transform="translate(-315.753 -347.836)" fill="#cb0f22" />
        </g>
        <g id="Group_101" data-name="Group 101" transform="translate(223.113 164.378)">
            <path id="Path_433" data-name="Path 433" d="M403.84,216.291a130.389,130.389,0,0,1,5.942,20.9h5.931A79,79,0,0,0,403.84,216.291Z" transform="translate(-325.722 -186.236)" fill="#cb0f22" />
            <path id="Path_434" data-name="Path 434" d="M301.474,166.1a79.66,79.66,0,0,0-32.565-.085A87.853,87.853,0,0,1,302.6,203.026a44.2,44.2,0,0,1,16.33,12.307h9.659A107.623,107.623,0,0,0,301.474,166.1Zm-6.6,15.183c-1.337-1.524-2.62-3.1-3.925-4.648l-3.17-3.9c-.58-.7-.528-1.169.179-1.34,3.345-.808,6.692-1.636,10.178-1.44a3.774,3.774,0,0,1,.784.1.962.962,0,0,1,.806,1.171,27.381,27.381,0,0,1-3.459,9.933C295.851,181.862,295.437,181.923,294.878,181.286Zm4.033,5.234a3.819,3.819,0,0,1-.721-.324.962.962,0,0,1-.426-1.356,27.356,27.356,0,0,1,6.223-8.48c.61-.549,1.022-.487,1.37.287.831,1.85,1.6,3.729,2.388,5.6l1.885,4.661c.348.841.162,1.273-.564,1.228C305.628,187.921,302.186,187.73,298.911,186.52Zm16.8,7.068a27.371,27.371,0,0,1-6.222,8.48c-.61.549-1.024.487-1.371-.287-.83-1.85-1.6-3.728-2.387-5.6l-1.885-4.661c-.348-.841-.162-1.273.565-1.228,3.435.211,6.877.4,10.152,1.612a3.82,3.82,0,0,1,.721.325A.961.961,0,0,1,315.708,193.588Z" transform="translate(-268.909 -164.378)" fill="#cb0f22" />
            <path id="Path_435" data-name="Path 435" d="M368.8,190.577a78.99,78.99,0,0,0-35.944-21.353,110.057,110.057,0,0,1,25.261,48.149h19.208A127.843,127.843,0,0,0,368.8,190.577Z" transform="translate(-295.834 -166.418)" fill="#cb0f22" />
        </g>
    </g>
</svg>
