<?xml version="1.0" encoding="UTF-8"?>
<svg xmlns="http://www.w3.org/2000/svg" xmlns:xlink="http://www.w3.org/1999/xlink" width="100pt" height="102pt" viewBox="0 0 100 102" version="1.1">
<g id="surface1">
<path style=" stroke:none;fill-rule:nonzero;fill:rgb(5.490196%,23.921569%,54.509804%);fill-opacity:1;" d="M 73.75 39.261719 C 69.042969 34.019531 61.9375 31.398438 54.964844 31.285156 C 51.382812 31.226562 47.699219 31.851562 44.523438 33.554688 C 41.257812 35.308594 38.898438 38.277344 37.363281 41.582031 C 34.246094 48.277344 33.414062 56.664062 37.984375 62.933594 C 40.066406 65.792969 42.972656 67.886719 46.449219 68.714844 C 49.988281 69.558594 53.835938 69.429688 57.390625 68.734375 C 60.621094 68.097656 63.761719 66.773438 66.25 64.589844 C 69.074219 62.109375 70.59375 58.578125 71.074219 54.921875 C 71.554688 51.308594 71.109375 47.441406 69.230469 44.253906 C 67.316406 41.011719 64.003906 38.773438 60.515625 37.472656 C 56.976562 36.148438 52.90625 35.972656 49.402344 37.488281 C 46.324219 38.808594 43.953125 41.359375 42.871094 44.511719 C 41.675781 48.132812 43.085938 52.042969 44.757812 55.285156 C 46.453125 58.574219 49.867188 60.347656 53.554688 60.136719 C 56.902344 59.945312 60.4375 58.261719 61.980469 55.167969 C 63.46875 52.183594 63.089844 48.210938 60.390625 46.011719 C 57.664062 43.792969 52.796875 43.28125 50.234375 46.058594 C 47.8125 48.6875 48.679688 53.460938 52.652344 53.78125 C 54.167969 53.90625 55.714844 53.214844 56.425781 51.84375 C 57.480469 49.824219 54.410156 48.03125 53.351562 50.058594 C 53.238281 50.277344 53.335938 50.25 53.089844 50.265625 C 52.792969 50.289062 52.597656 50.265625 52.472656 50.042969 C 52.0625 49.34375 52.714844 48.457031 53.304688 48.117188 C 55.183594 47.023438 58.273438 47.996094 59.046875 50.03125 C 60.964844 55.078125 53.78125 57.984375 49.996094 55.902344 C 48.832031 55.265625 48.167969 54.226562 47.613281 53.058594 C 46.929688 51.6875 46.417969 50.234375 46.09375 48.734375 C 45.628906 46.324219 46.597656 44.03125 48.34375 42.367188 C 52.472656 38.429688 59.035156 39.8125 63.234375 42.886719 C 67.933594 46.328125 68.761719 52.933594 66.628906 58.082031 C 64.636719 62.898438 59.503906 65.109375 54.570312 65.601562 C 51.6875 65.894531 48.625 65.859375 45.875 64.847656 C 43.574219 64.003906 41.679688 62.242188 40.410156 60.1875 C 37.320312 55.179688 37.992188 48.847656 40.300781 43.667969 C 41.425781 41.140625 43.003906 38.695312 45.375 37.164062 C 47.652344 35.695312 50.359375 35.019531 53.050781 34.859375 C 58.449219 34.542969 64.042969 35.9375 68.421875 39.15625 C 69.445312 39.929688 70.386719 40.800781 71.234375 41.761719 C 72.761719 43.464844 75.269531 40.953125 73.75 39.261719 Z M 73.75 39.261719 "/>
<path style=" stroke:none;fill-rule:nonzero;fill:rgb(5.490196%,23.921569%,54.509804%);fill-opacity:1;" d="M 97.867188 69.300781 C 90.886719 66.378906 83.90625 63.449219 76.921875 60.523438 L 76.941406 60.359375 C 83.699219 62.433594 90.367188 64.695312 96.945312 67.148438 C 99.542969 68.117188 101.066406 64.851562 98.484375 63.890625 C 92.460938 61.640625 86.363281 59.554688 80.191406 57.628906 C 85.832031 58.300781 91.4375 59.261719 96.980469 60.515625 C 98.121094 60.777344 99.332031 60.546875 99.78125 59.585938 C 100.152344 58.796875 99.664062 57.515625 98.515625 57.253906 C 91.679688 55.6875 84.757812 54.535156 77.785156 53.800781 L 77.792969 53.714844 L 77.8125 53.574219 C 84.210938 53.359375 90.492188 52.054688 96.945312 52.410156 C 99.730469 52.566406 100.148438 49.050781 97.34375 48.898438 C 90.863281 48.539062 84.597656 49.691406 78.199219 50.007812 C 78.226562 49.863281 78.269531 49.71875 78.328125 49.582031 C 78.636719 48.886719 80.179688 48.605469 80.953125 48.289062 C 86.296875 46.140625 91.449219 43.542969 96.351562 40.53125 C 98.542969 39.179688 95.757812 36.351562 93.574219 37.699219 C 88.464844 40.847656 83.007812 43.464844 77.234375 45.75 C 75.890625 46.28125 74.714844 46.964844 74.238281 48.175781 C 73.710938 49.507812 73.738281 51.070312 73.558594 52.46875 C 73.183594 55.398438 72.808594 58.328125 72.433594 61.257812 C 72.332031 62.078125 72.964844 62.765625 73.835938 63.132812 C 81.332031 66.273438 88.832031 69.417969 96.332031 72.5625 C 97.394531 73.007812 98.746094 72.464844 99.136719 71.632812 C 99.578125 70.691406 98.9375 69.75 97.867188 69.300781 Z M 97.867188 69.300781 "/>
<path style=" stroke:none;fill-rule:nonzero;fill:rgb(5.490196%,23.921569%,54.509804%);fill-opacity:1;" d="M 87.585938 79.929688 L 71.5 65.082031 C 70.796875 64.410156 69.683594 64.410156 68.984375 65.082031 C 66.839844 67.289062 64.234375 68.996094 61.355469 70.085938 C 59.867188 70.628906 58.328125 71.019531 56.761719 71.253906 C 55.203125 71.5 53.6875 71.984375 52.960938 73.503906 C 52.589844 74.261719 52.570312 75.097656 52.542969 75.925781 C 52.5 76.960938 52.472656 78 52.449219 79.035156 C 52.398438 80.980469 52.367188 82.921875 52.355469 84.867188 C 52.328125 88.757812 52.375 92.648438 52.492188 96.535156 C 52.558594 98.804688 56.117188 98.816406 56.050781 96.535156 C 55.9375 92.777344 55.894531 89.019531 55.910156 85.257812 C 55.921875 83.445312 55.949219 81.628906 55.988281 79.8125 C 56.007812 78.90625 56.03125 78 56.0625 77.09375 C 56.074219 76.691406 55.90625 75.34375 56.148438 75.027344 C 56.351562 74.769531 57.15625 74.75 57.4375 74.703125 C 58.152344 74.589844 58.863281 74.480469 59.574219 74.3125 C 61.058594 73.957031 62.507812 73.46875 63.898438 72.847656 C 66.222656 71.824219 68.371094 70.449219 70.261719 68.761719 C 75.195312 73.316406 80.132812 77.875 85.070312 82.429688 C 86.746094 83.976562 89.269531 81.484375 87.585938 79.929688 Z M 87.585938 79.929688 "/>
<path style=" stroke:none;fill-rule:nonzero;fill:rgb(5.490196%,23.921569%,54.509804%);fill-opacity:1;" d="M 82.457031 87.113281 C 80.039062 83.617188 77.386719 80.285156 74.519531 77.140625 C 73.835938 76.398438 73.140625 75.664062 72.433594 74.9375 C 71.691406 74.179688 70.921875 73.417969 69.769531 73.453125 C 68.691406 73.488281 67.578125 74.050781 66.574219 74.390625 C 65.476562 74.761719 64.378906 75.132812 63.28125 75.503906 C 62.269531 75.847656 61.085938 76.089844 60.199219 76.675781 C 59.136719 77.378906 59.03125 78.53125 59.289062 79.667969 C 59.789062 81.855469 60.527344 84.015625 61.140625 86.171875 L 62.992188 92.675781 C 63.253906 93.59375 63.429688 94.652344 64.242188 95.261719 C 65.285156 96.039062 66.519531 95.683594 67.675781 95.421875 C 72.394531 94.339844 76.933594 92.617188 81.175781 90.292969 C 81.53125 90.117188 81.808594 89.816406 81.953125 89.449219 C 82.644531 88.941406 82.972656 87.859375 82.457031 87.113281 Z M 66.054688 78.296875 C 66.746094 78.0625 67.433594 77.832031 68.121094 77.597656 C 67.949219 78.363281 67.777344 79.125 67.609375 79.890625 C 66.851562 79.441406 66.089844 78.988281 65.328125 78.535156 C 65.574219 78.460938 65.816406 78.378906 66.054688 78.296875 Z M 63.621094 81.886719 L 63.539062 81.59375 C 64.632812 82.246094 65.730469 82.898438 66.828125 83.550781 C 66.4375 85.429688 66.0625 87.3125 65.703125 89.195312 L 64.679688 85.605469 C 64.328125 84.363281 63.976562 83.125 63.621094 81.886719 Z M 72.597656 90.304688 C 71.46875 90.707031 70.328125 91.070312 69.171875 91.394531 C 69.074219 91.421875 68.980469 91.449219 68.878906 91.476562 C 69.257812 89.472656 69.652344 87.46875 70.0625 85.472656 C 72.027344 86.632812 73.992188 87.789062 75.960938 88.9375 C 74.859375 89.4375 73.742188 89.894531 72.597656 90.304688 Z M 70.832031 81.8125 C 71.03125 80.886719 71.234375 79.964844 71.441406 79.042969 C 71.546875 79.15625 71.65625 79.265625 71.757812 79.378906 C 72.6875 80.386719 73.589844 81.410156 74.472656 82.460938 C 75.253906 83.382812 76.007812 84.328125 76.742188 85.289062 C 74.769531 84.136719 72.800781 82.976562 70.832031 81.8125 Z M 70.832031 81.8125 "/>
<path style=" stroke:none;fill-rule:nonzero;fill:rgb(5.490196%,23.921569%,54.509804%);fill-opacity:1;" d="M 45.300781 72.636719 C 40.871094 65.78125 33.242188 62.457031 25.339844 61.460938 C 20.171875 60.808594 14.960938 61.113281 9.78125 61.425781 C 7.503906 61.5625 7.488281 65.097656 9.78125 64.960938 C 17.585938 64.492188 25.839844 63.949219 33.210938 67.074219 C 36.390625 68.425781 39.308594 70.476562 41.402344 73.234375 C 43.53125 76.035156 44.84375 79.367188 45.535156 82.785156 C 46.421875 87.203125 46.21875 91.820312 45.585938 96.257812 C 45.453125 97.199219 45.820312 98.152344 46.832031 98.429688 C 47.667969 98.65625 48.886719 98.148438 49.019531 97.195312 C 50.203125 88.878906 50.015625 79.929688 45.300781 72.636719 Z M 45.300781 72.636719 "/>
<path style=" stroke:none;fill-rule:nonzero;fill:rgb(5.490196%,23.921569%,54.509804%);fill-opacity:1;" d="M 40.679688 75.304688 C 40.175781 74.015625 38.175781 73.394531 37.425781 74.882812 C 35.414062 78.859375 33.613281 82.9375 32.027344 87.101562 C 31.265625 89.113281 30.554688 91.140625 29.898438 93.191406 C 29.5625 94.242188 29.242188 95.300781 28.933594 96.363281 C 28.832031 96.710938 28.703125 97.492188 28.535156 98.097656 C 28.191406 97.941406 27.847656 97.785156 27.503906 97.628906 C 26.75 97.285156 26 96.941406 25.242188 96.597656 C 24.546875 96.285156 23.847656 95.976562 23.15625 95.652344 C 22.761719 95.464844 22.445312 95.390625 22.328125 95.050781 C 22.167969 94.585938 22.414062 93.683594 22.488281 93.199219 C 22.589844 92.519531 22.734375 91.84375 22.90625 91.179688 C 23.226562 89.921875 23.644531 88.6875 24.148438 87.488281 C 26.25 82.453125 29.542969 77.996094 32.203125 73.253906 C 32.648438 72.460938 32.441406 71.265625 31.566406 70.832031 C 27.316406 68.730469 22.425781 68.742188 17.78125 68.671875 C 12.792969 68.597656 7.804688 68.777344 2.835938 69.199219 C 1.671875 69.296875 0.824219 70.25 1.117188 71.4375 C 2.789062 78.203125 5.160156 84.777344 8.191406 91.058594 C 8.816406 92.351562 10.566406 92.046875 11.265625 91.058594 L 21.207031 76.949219 C 21.945312 75.894531 20.96875 74.167969 19.667969 74.285156 C 16.429688 74.582031 13.191406 74.875 9.953125 75.171875 C 8.996094 75.261719 8.171875 75.921875 8.171875 76.941406 C 8.171875 77.832031 8.992188 78.796875 9.953125 78.707031 L 16.023438 78.152344 C 14.03125 80.980469 12.039062 83.808594 10.050781 86.632812 C 8.035156 82.078125 6.375 77.375 5.085938 72.5625 C 9.050781 72.285156 13.023438 72.164062 17.003906 72.199219 C 20.589844 72.234375 24.625 72.054688 28.117188 73.210938 C 24.257812 79.75 19.65625 86.101562 18.839844 93.835938 C 18.738281 94.820312 18.695312 95.859375 19.152344 96.773438 C 19.6875 97.839844 20.65625 98.382812 21.707031 98.863281 C 22.75 99.339844 23.792969 99.8125 24.835938 100.289062 C 25.957031 100.796875 27.101562 101.460938 28.277344 101.828125 C 31.019531 102.683594 31.671875 99.742188 32.210938 97.835938 C 32.851562 95.589844 33.554688 93.363281 34.324219 91.160156 C 35.5625 87.605469 36.972656 84.121094 38.550781 80.707031 C 39.511719 85.394531 39.363281 90.265625 39.195312 95.058594 C 39.121094 97.335938 42.679688 97.332031 42.757812 95.058594 C 42.984375 88.4375 43.144531 81.578125 40.679688 75.304688 Z M 40.679688 75.304688 "/>
<path style=" stroke:none;fill-rule:nonzero;fill:rgb(5.490196%,23.921569%,54.509804%);fill-opacity:1;" d="M 31.242188 56.257812 C 26.910156 45.417969 22.207031 34.730469 17.136719 24.207031 C 16.722656 23.34375 15.484375 23.117188 14.703125 23.570312 C 13.816406 24.085938 13.648438 25.125 14.066406 25.992188 C 17.316406 32.734375 20.414062 39.550781 23.351562 46.433594 C 18.6875 40.773438 14.300781 34.894531 10.199219 28.796875 C 8.933594 26.914062 5.847656 28.683594 7.125 30.582031 C 10.558594 35.683594 14.191406 40.648438 18.019531 45.46875 C 14.011719 41.726562 9.960938 38.03125 5.867188 34.382812 C 4.164062 32.867188 1.636719 35.359375 3.351562 36.882812 C 8.1875 41.191406 12.964844 45.566406 17.675781 50.007812 C 16.253906 49.640625 14.820312 49.292969 13.417969 48.851562 C 9.59375 47.652344 6.238281 45.230469 2.25 44.507812 C 1.304688 44.335938 0.328125 44.761719 0.0585938 45.742188 C -0.179688 46.601562 0.351562 47.746094 1.300781 47.917969 C 5.167969 48.617188 8.453125 50.953125 12.152344 52.160156 C 12.308594 52.214844 12.460938 52.257812 12.617188 52.308594 C 10.398438 52.148438 8.175781 52.066406 5.953125 52.054688 C 3.660156 52.039062 3.65625 55.578125 5.953125 55.589844 C 13.738281 55.621094 21.496094 56.578125 29.054688 58.429688 C 30.246094 58.722656 31.769531 57.578125 31.242188 56.257812 Z M 31.242188 56.257812 "/>
<path style=" stroke:none;fill-rule:nonzero;fill:rgb(5.490196%,23.921569%,54.509804%);fill-opacity:1;" d="M 44.03125 27.769531 C 41.191406 25.96875 38.355469 24.160156 35.507812 22.367188 C 32.84375 20.695312 30.070312 19.117188 26.972656 18.394531 C 26.089844 18.191406 24.976562 18.664062 24.785156 19.628906 C 24.589844 20.511719 24.617188 21.429688 24.867188 22.296875 C 24.867188 22.429688 24.878906 22.566406 24.898438 22.699219 C 26.019531 29.394531 28.246094 35.855469 31.484375 41.828125 C 32.101562 42.96875 33.949219 42.996094 34.558594 41.828125 C 36.8125 37.519531 39.300781 32.820312 44.03125 30.820312 C 45.34375 30.269531 45.039062 28.40625 44.03125 27.769531 Z M 44.03125 27.769531 "/>
<path style=" stroke:none;fill-rule:nonzero;fill:rgb(5.490196%,23.921569%,54.509804%);fill-opacity:1;" d="M 63.984375 15.007812 C 63.992188 12.460938 64.007812 9.8125 63.648438 7.28125 C 63.230469 4.335938 59.851562 4.78125 57.613281 4.726562 C 54.90625 4.667969 52.199219 4.683594 49.488281 4.773438 C 48.269531 4.8125 46.886719 4.742188 46.128906 5.886719 C 45.394531 7 45.753906 8.601562 45.816406 9.855469 C 46.101562 15.902344 46.382812 21.949219 46.667969 27.992188 C 46.777344 30.261719 50.339844 30.273438 50.230469 27.992188 L 49.738281 17.574219 L 49.503906 12.558594 L 49.375 9.859375 C 49.359375 9.472656 49.339844 9.085938 49.324219 8.699219 L 49.300781 8.320312 C 49.429688 8.3125 49.558594 8.308594 49.683594 8.304688 C 50.203125 8.289062 50.71875 8.273438 51.230469 8.265625 C 52.390625 8.238281 53.554688 8.226562 54.714844 8.230469 C 55.808594 8.234375 56.90625 8.246094 58.003906 8.273438 C 58.519531 8.289062 59.035156 8.304688 59.546875 8.324219 C 59.695312 8.328125 59.996094 8.308594 60.257812 8.316406 C 60.328125 8.878906 60.277344 9.652344 60.300781 10.046875 C 60.347656 11 60.386719 11.953125 60.40625 12.910156 C 60.433594 14.246094 60.476562 15.613281 60.433594 16.96875 C 59.441406 16.847656 58.445312 16.660156 57.46875 16.535156 C 56.527344 16.410156 55.453125 16.382812 54.464844 16.210938 C 54.464844 15.761719 54.472656 15.3125 54.480469 14.871094 C 54.484375 14.496094 54.457031 14.078125 54.46875 13.671875 L 55.398438 13.675781 C 56.015625 13.675781 56.636719 13.679688 57.257812 13.683594 C 59.546875 13.691406 59.550781 10.152344 57.257812 10.144531 C 56.058594 10.140625 54.8125 10.046875 53.613281 10.140625 C 52.0625 10.265625 51.140625 11.273438 50.992188 12.78125 C 50.90625 13.964844 50.878906 15.148438 50.914062 16.332031 C 50.925781 17.6875 51.179688 19.03125 52.6875 19.433594 C 53.894531 19.757812 55.253906 19.777344 56.492188 19.941406 C 57.929688 20.128906 59.363281 20.320312 60.796875 20.507812 C 62.0625 20.675781 63.429688 20.511719 63.828125 19.074219 C 64.167969 17.84375 63.980469 16.277344 63.984375 15.007812 Z M 63.984375 15.007812 "/>
<path style=" stroke:none;fill-rule:nonzero;fill:rgb(5.490196%,23.921569%,54.509804%);fill-opacity:1;" d="M 45.480469 21.902344 C 44.671875 15.8125 43.917969 9.71875 43.222656 3.613281 C 43.113281 2.664062 42.484375 1.84375 41.445312 1.84375 C 40.566406 1.84375 39.554688 2.660156 39.664062 3.613281 C 39.945312 6.09375 40.238281 8.578125 40.542969 11.058594 C 38.453125 7.582031 36.273438 4.164062 34 0.800781 C 32.730469 -1.078125 29.644531 0.691406 30.925781 2.585938 C 34.019531 7.160156 36.9375 11.839844 39.6875 16.628906 C 36.34375 14.261719 32.828125 12.152344 29.167969 10.308594 C 27.128906 9.285156 25.320312 12.335938 27.371094 13.363281 C 32.75 16.050781 37.804688 19.335938 42.445312 23.152344 C 43 23.613281 43.6875 23.824219 44.386719 23.515625 C 44.96875 23.265625 45.574219 22.59375 45.480469 21.902344 Z M 45.480469 21.902344 "/>
<path style=" stroke:none;fill-rule:nonzero;fill:rgb(5.490196%,23.921569%,54.509804%);fill-opacity:1;" d="M 93.707031 26.871094 C 93.183594 25.984375 92.148438 25.835938 91.273438 26.238281 C 86.171875 28.582031 81.191406 31.160156 76.328125 33.960938 C 76.054688 33.722656 75.773438 33.492188 75.496094 33.261719 C 75.605469 33.160156 75.707031 33.042969 75.792969 32.921875 C 79.757812 27.292969 84.292969 22.082031 89.320312 17.363281 C 90.984375 15.792969 88.464844 13.296875 86.800781 14.863281 C 81.566406 19.800781 76.847656 25.25 72.71875 31.136719 C 72.699219 31.164062 72.6875 31.191406 72.671875 31.21875 C 72.015625 30.800781 71.351562 30.410156 70.667969 30.042969 C 74.730469 23.347656 78.980469 16.769531 83.421875 10.3125 C 84.714844 8.425781 81.628906 6.65625 80.34375 8.527344 C 75.902344 14.992188 71.648438 21.578125 67.582031 28.28125 C 67.53125 28.359375 67.492188 28.445312 67.453125 28.527344 C 67.253906 28.449219 67.050781 28.367188 66.847656 28.292969 C 68.21875 20.371094 70.65625 12.671875 74.097656 5.398438 C 74.507812 4.539062 74.339844 3.492188 73.460938 2.980469 C 72.6875 2.53125 71.4375 2.75 71.023438 3.617188 C 67.445312 11.105469 64.894531 19.042969 63.441406 27.210938 C 61.367188 26.679688 59.238281 26.359375 57.097656 26.261719 C 56.929688 25.285156 56.84375 24.292969 56.835938 23.300781 C 56.816406 21.023438 53.257812 21.019531 53.273438 23.300781 C 53.289062 25.042969 53.507812 26.777344 53.925781 28.46875 C 54.144531 29.230469 54.84375 29.761719 55.640625 29.769531 C 62.789062 29.753906 69.664062 32.488281 74.835938 37.394531 C 75.417969 37.949219 76.292969 38.0625 76.992188 37.671875 C 82.207031 34.617188 87.566406 31.824219 93.070312 29.292969 C 93.941406 28.890625 94.160156 27.640625 93.707031 26.871094 Z M 93.707031 26.871094 "/>
</g>
</svg>
