<svg xmlns="http://www.w3.org/2000/svg" width="94.164" height="64.149" viewBox="0 0 94.164 64.149">
    <path id="Path_355" data-name="Path 355" d="M285.847,287.113a1.69,1.69,0,0,1-3.38,0V247.471a4.068,4.068,0,0,1,4.061-4.061h40.448a1.689,1.689,0,0,1,0,3.378H286.528a.678.678,0,0,0-.481.2.688.688,0,0,0-.2.481v39.642Zm69.91-38.548a1.69,1.69,0,1,1,0,3.38H340.811a1.69,1.69,0,0,1,0-3.38Zm0-5.55a1.689,1.689,0,1,1,0,3.378H340.811a1.689,1.689,0,0,1,0-3.378Zm-17.846-7.063a5.87,5.87,0,0,0-5.852,5.855v11.5a5.869,5.869,0,0,0,5.566,5.847l.042,8.888a1.686,1.686,0,0,0,2.958,1.161l8.663-10.041h9.841a5.87,5.87,0,0,0,5.855-5.855v-11.5a5.87,5.87,0,0,0-5.855-5.855Zm21.218,3.38H337.911a2.485,2.485,0,0,0-2.472,2.475v11.5a2.485,2.485,0,0,0,2.472,2.475H339.3v.008a1.682,1.682,0,0,1,1.683,1.675l.028,6.13,6.15-7.125a1.687,1.687,0,0,1,1.361-.689h10.608a2.485,2.485,0,0,0,2.475-2.475v-11.5a2.485,2.485,0,0,0-2.475-2.475ZM347.266,287.46l2.428-11.372a1.689,1.689,0,0,0-1.3-2,1.933,1.933,0,0,0-.35-.039h-18.7a1.692,1.692,0,0,0-1.683,1.522l-1.8,9.849h-6.888a1.69,1.69,0,0,0,0,3.38h8.291V288.8a1.686,1.686,0,0,0,1.658-1.38l1.828-9.988h15.207l-1.989,9.336a1.685,1.685,0,1,0,3.3.7Zm-36.112-.347V278.5a10.489,10.489,0,0,1,10.458-10.458h2.508a10.358,10.358,0,0,1,4.136.85,10.618,10.618,0,0,1,3.483,2.455,1.685,1.685,0,0,0,2.455-2.308A13.893,13.893,0,0,0,329.6,265.8l-.005,0a13.741,13.741,0,0,0-5.475-1.142h-2.508A13.874,13.874,0,0,0,307.774,278.5v8.616a1.69,1.69,0,0,0,3.38,0Zm11.713-38.937a7.088,7.088,0,0,0-5.014,2.078l-.008.008a7.083,7.083,0,0,0-.1,9.936l.1.106a7.091,7.091,0,0,0,10.033,0l.011-.011a7.095,7.095,0,0,0,0-10.038l0,0a7.089,7.089,0,0,0-5.019-2.083Zm2.633,4.464a3.745,3.745,0,0,0-5.269,0l-.006.006a3.745,3.745,0,0,0-.069,5.2l.075.072a3.732,3.732,0,0,0,5.269.006l.006-.006a3.732,3.732,0,0,0-.006-5.269v-.006Zm-51.48,39.609a1.69,1.69,0,0,1,3.38,0v3.791a.675.675,0,0,0,.194.481h.006a.691.691,0,0,0,.481.2h86.042a.678.678,0,0,0,.48-.2.688.688,0,0,0,.2-.481v-3.791a1.69,1.69,0,0,1,3.38,0v3.791a4.068,4.068,0,0,1-4.061,4.061H278.081a4.05,4.05,0,0,1-2.869-1.192l0,0a4.056,4.056,0,0,1-1.194-2.867v-3.791Zm82.34-27.843a1.689,1.689,0,0,1,3.378,0v22.707a1.689,1.689,0,0,1-3.378,0Z" transform="translate(-274.02 -235.952)" fill="#0845ab" fill-rule="evenodd" />
</svg>
